<svg xmlns="http://www.w3.org/2000/svg" xmlns:xlink="http://www.w3.org/1999/xlink" width="500" zoomAndPan="magnify" viewBox="0 0 375 374.999991" height="500" preserveAspectRatio="xMidYMid meet" version="1.0"><defs><filter x="0%" y="0%" width="100%" height="100%" id="f341234985"><feColorMatrix values="0 0 0 0 1 0 0 0 0 1 0 0 0 0 1 0 0 0 1 0" color-interpolation-filters="sRGB"/></filter><mask id="72ab845cef"><g filter="url(#f341234985)"><rect x="-37.5" width="450" fill="#000000" y="-37.499999" height="449.999989" fill-opacity="0.13"/></g></mask><clipPath id="3f1a78d6c4"><path d="M 0 0 L 295.800781 0 L 295.800781 276.03125 L 0 276.03125 Z M 0 0 " clip-rule="nonzero"/></clipPath><clipPath id="c35cef8fb0"><rect x="0" width="296" y="0" height="277"/></clipPath></defs><g mask="url(#72ab845cef)"><g transform="matrix(1, 0, 0, 1, 0, 0)"><g clip-path="url(#c35cef8fb0)"><g clip-path="url(#3f1a78d6c4)"><path fill="#0097b2" d="M 102.359375 -110.96875 C -4.582031 -110.96875 -91.199219 -24.351562 -91.199219 82.589844 C -91.199219 189.53125 -4.582031 276.148438 102.359375 276.148438 C 209.300781 276.148438 295.917969 189.53125 295.917969 82.589844 C 295.917969 -24.351562 209.300781 -110.96875 102.359375 -110.96875 Z M 102.359375 237.4375 C 16.808594 237.4375 -52.488281 168.140625 -52.488281 82.589844 C -52.488281 -2.964844 16.808594 -72.257812 102.359375 -72.257812 C 187.914062 -72.257812 257.207031 -2.964844 257.207031 82.589844 C 257.207031 168.140625 187.914062 237.4375 102.359375 237.4375 Z M 102.359375 237.4375 " fill-opacity="1" fill-rule="nonzero"/></g></g></g></g></svg>