<svg xmlns="http://www.w3.org/2000/svg" xmlns:xlink="http://www.w3.org/1999/xlink" width="500" zoomAndPan="magnify" viewBox="0 0 375 374.999991" height="500" preserveAspectRatio="xMidYMid meet" version="1.0"><defs><clipPath id="bd1f32c81d"><path d="M 162 109 L 370.34375 109 L 370.34375 137 L 162 137 Z M 162 109 " clip-rule="nonzero"/></clipPath><clipPath id="1d4250c84f"><path d="M 162 90 L 370.34375 90 L 370.34375 137 L 162 137 Z M 162 90 " clip-rule="nonzero"/></clipPath><clipPath id="90039f18da"><path d="M 162 167 L 370.34375 167 L 370.34375 195 L 162 195 Z M 162 167 " clip-rule="nonzero"/></clipPath><clipPath id="a037844c7f"><path d="M 162 226 L 370.34375 226 L 370.34375 254 L 162 254 Z M 162 226 " clip-rule="nonzero"/></clipPath><clipPath id="6828365e46"><path d="M 162 285 L 370.34375 285 L 370.34375 312.765625 L 162 312.765625 Z M 162 285 " clip-rule="nonzero"/></clipPath><clipPath id="38ab7f4b95"><path d="M 362 109 L 370.34375 109 L 370.34375 295 L 362 295 Z M 362 109 " clip-rule="nonzero"/></clipPath><clipPath id="aebe27bff3"><path d="M 4.34375 62.265625 L 210 62.265625 L 210 138 L 4.34375 138 Z M 4.34375 62.265625 " clip-rule="nonzero"/></clipPath><clipPath id="e6773d01a6"><path d="M 4.34375 128 L 172 128 L 172 204 L 4.34375 204 Z M 4.34375 128 " clip-rule="nonzero"/></clipPath><clipPath id="cfa2366521"><path d="M 4.34375 195 L 172 195 L 172 271 L 4.34375 271 Z M 4.34375 195 " clip-rule="nonzero"/></clipPath></defs><g clip-path="url(#bd1f32c81d)"><path fill="#0f1a40" d="M 266.71875 136.105469 C 239.863281 136.105469 214.589844 134.164062 195.53125 130.636719 C 166.242188 125.222656 162.855469 118.210938 162.855469 113.402344 C 162.855469 111.035156 164.773438 109.113281 167.140625 109.113281 C 169.46875 109.113281 171.355469 110.949219 171.433594 113.253906 C 172.164062 114.699219 178.46875 119.011719 199.609375 122.648438 C 217.851562 125.789062 241.6875 127.519531 266.71875 127.519531 C 291.746094 127.519531 315.582031 125.789062 333.832031 122.648438 C 354.972656 119.011719 361.277344 114.699219 362.003906 113.253906 C 362.085938 110.949219 363.972656 109.113281 366.292969 109.113281 C 368.667969 109.113281 370.582031 111.035156 370.582031 113.402344 C 370.582031 118.210938 367.199219 125.222656 337.910156 130.636719 C 318.851562 134.164062 293.570312 136.105469 266.71875 136.105469 Z M 266.71875 136.105469 " fill-opacity="1" fill-rule="evenodd"/></g><g clip-path="url(#1d4250c84f)"><path fill="#0f1a40" d="M 266.71875 136.105469 C 239.863281 136.105469 214.589844 134.164062 195.53125 130.636719 C 166.242188 125.222656 162.855469 118.210938 162.855469 113.402344 C 162.855469 108.597656 166.242188 101.578125 195.53125 96.171875 C 214.589844 92.644531 239.863281 90.703125 266.71875 90.703125 C 293.570312 90.703125 318.851562 92.644531 337.910156 96.171875 C 367.199219 101.578125 370.582031 108.597656 370.582031 113.402344 C 370.582031 118.210938 367.199219 125.222656 337.910156 130.636719 C 318.851562 134.164062 293.570312 136.105469 266.71875 136.105469 Z M 171.519531 113.402344 C 172.59375 114.984375 179.160156 119.132812 199.609375 122.65625 C 217.851562 125.796875 241.6875 127.519531 266.71875 127.519531 C 291.753906 127.519531 315.582031 125.796875 333.832031 122.65625 C 354.28125 119.132812 360.847656 114.984375 361.914062 113.402344 C 360.847656 111.824219 354.28125 107.679688 333.832031 104.160156 C 315.582031 101.011719 291.753906 99.289062 266.71875 99.289062 C 241.6875 99.289062 217.851562 101.011719 199.609375 104.160156 C 179.160156 107.679688 172.59375 111.824219 171.519531 113.402344 Z M 171.519531 113.402344 " fill-opacity="1" fill-rule="evenodd"/></g><g clip-path="url(#90039f18da)"><path fill="#0f1a40" d="M 266.71875 194.96875 C 239.863281 194.96875 214.589844 193.03125 195.53125 189.503906 C 166.242188 184.085938 162.855469 177.074219 162.855469 172.269531 C 162.855469 169.894531 164.773438 167.976562 167.140625 167.976562 C 169.46875 167.976562 171.355469 169.8125 171.433594 172.117188 C 172.164062 173.5625 178.46875 177.878906 199.609375 181.511719 C 217.851562 184.652344 241.6875 186.382812 266.71875 186.382812 C 291.753906 186.382812 315.582031 184.652344 333.832031 181.511719 C 354.972656 177.878906 361.277344 173.5625 362.003906 172.117188 C 362.085938 169.8125 363.972656 167.976562 366.292969 167.976562 C 368.667969 167.976562 370.582031 169.894531 370.582031 172.269531 C 370.582031 177.070312 367.199219 184.085938 337.910156 189.503906 C 318.851562 193.03125 293.570312 194.96875 266.71875 194.96875 Z M 266.71875 194.96875 " fill-opacity="1" fill-rule="evenodd"/></g><g clip-path="url(#a037844c7f)"><path fill="#0f1a40" d="M 266.71875 253.824219 C 239.863281 253.824219 214.589844 251.886719 195.53125 248.367188 C 166.242188 242.949219 162.855469 235.933594 162.855469 231.132812 C 162.855469 228.757812 164.773438 226.839844 167.140625 226.839844 C 169.46875 226.839844 171.355469 228.679688 171.433594 230.976562 C 172.164062 232.425781 178.46875 236.734375 199.609375 240.375 C 217.851562 243.515625 241.6875 245.246094 266.71875 245.246094 C 291.746094 245.246094 315.582031 243.515625 333.832031 240.375 C 354.972656 236.734375 361.277344 232.425781 362.003906 230.976562 C 362.085938 228.679688 363.972656 226.839844 366.292969 226.839844 C 368.667969 226.839844 370.582031 228.757812 370.582031 231.132812 C 370.582031 235.933594 367.199219 242.949219 337.910156 248.367188 C 318.851562 251.886719 293.570312 253.824219 266.71875 253.824219 Z M 266.71875 253.824219 " fill-opacity="1" fill-rule="evenodd"/></g><g clip-path="url(#6828365e46)"><path fill="#0f1a40" d="M 266.71875 312.6875 C 239.863281 312.6875 214.589844 310.75 195.53125 307.230469 C 166.242188 301.816406 162.855469 294.796875 162.855469 289.988281 C 162.855469 287.621094 164.773438 285.703125 167.140625 285.703125 C 169.46875 285.703125 171.355469 287.542969 171.433594 289.839844 C 172.164062 291.285156 178.46875 295.597656 199.609375 299.238281 C 217.851562 302.378906 241.6875 304.109375 266.71875 304.109375 C 291.753906 304.109375 315.582031 302.378906 333.832031 299.238281 C 354.972656 295.597656 361.277344 291.289062 362.003906 289.839844 C 362.085938 287.542969 363.972656 285.703125 366.292969 285.703125 C 368.667969 285.703125 370.582031 287.621094 370.582031 289.988281 C 370.582031 294.796875 367.199219 301.816406 337.910156 307.230469 C 318.851562 310.75 293.570312 312.6875 266.71875 312.6875 Z M 266.71875 312.6875 " fill-opacity="1" fill-rule="evenodd"/></g><path fill="#0f1a40" d="M 167.144531 294.28125 C 164.773438 294.28125 162.855469 292.363281 162.855469 289.988281 L 162.855469 113.402344 C 162.855469 111.035156 164.773438 109.113281 167.144531 109.113281 C 169.519531 109.113281 171.433594 111.035156 171.433594 113.402344 L 171.433594 289.988281 C 171.433594 292.363281 169.519531 294.28125 167.144531 294.28125 Z M 167.144531 294.28125 " fill-opacity="1" fill-rule="evenodd"/><g clip-path="url(#38ab7f4b95)"><path fill="#0f1a40" d="M 366.292969 294.28125 C 363.921875 294.28125 362 292.363281 362 289.988281 L 362 113.402344 C 362 111.035156 363.921875 109.113281 366.292969 109.113281 C 368.667969 109.113281 370.582031 111.035156 370.582031 113.402344 L 370.582031 289.988281 C 370.582031 292.363281 368.667969 294.28125 366.292969 294.28125 Z M 366.292969 294.28125 " fill-opacity="1" fill-rule="evenodd"/></g><path fill="#0f1a40" d="M 294.277344 165.738281 L 239.15625 165.738281 C 236.789062 165.738281 234.871094 163.820312 234.871094 161.453125 C 234.871094 159.074219 236.789062 157.160156 239.15625 157.160156 L 294.277344 157.160156 C 296.644531 157.160156 298.570312 159.074219 298.570312 161.453125 C 298.570312 163.820312 296.644531 165.738281 294.277344 165.738281 Z M 294.277344 165.738281 " fill-opacity="1" fill-rule="evenodd"/><path fill="#0f1a40" d="M 294.277344 283.257812 L 239.15625 283.257812 C 236.789062 283.257812 234.871094 281.339844 234.871094 278.964844 C 234.871094 276.597656 236.789062 274.679688 239.15625 274.679688 L 294.277344 274.679688 C 296.644531 274.679688 298.570312 276.597656 298.570312 278.964844 C 298.570312 281.339844 296.644531 283.257812 294.277344 283.257812 Z M 294.277344 283.257812 " fill-opacity="1" fill-rule="evenodd"/><path fill="#0f1a40" d="M 294.277344 224.601562 L 239.15625 224.601562 C 236.789062 224.601562 234.871094 222.675781 234.871094 220.308594 C 234.871094 217.941406 236.789062 216.023438 239.15625 216.023438 L 294.277344 216.023438 C 296.644531 216.023438 298.570312 217.941406 298.570312 220.308594 C 298.570312 222.675781 296.644531 224.601562 294.277344 224.601562 Z M 294.277344 224.601562 " fill-opacity="1" fill-rule="evenodd"/><g clip-path="url(#aebe27bff3)"><path fill="#0f1a40" d="M 167.144531 137.34375 L 15.132812 137.34375 C 9.214844 137.34375 4.410156 132.535156 4.410156 126.617188 L 4.410156 72.960938 C 4.410156 67.046875 9.214844 62.238281 15.132812 62.238281 L 199.078125 62.238281 C 204.988281 62.238281 209.800781 67.046875 209.800781 72.960938 L 209.800781 98.882812 C 209.800781 101.257812 207.878906 103.175781 205.511719 103.175781 C 203.140625 103.175781 201.21875 101.257812 201.21875 98.882812 L 201.21875 72.960938 C 201.21875 71.796875 200.238281 70.816406 199.078125 70.816406 L 15.132812 70.816406 C 13.972656 70.816406 12.984375 71.796875 12.984375 72.960938 L 12.984375 126.617188 C 12.984375 127.777344 13.972656 128.765625 15.132812 128.765625 L 167.144531 128.765625 C 169.519531 128.765625 171.433594 130.679688 171.433594 133.050781 C 171.433594 135.425781 169.519531 137.34375 167.144531 137.34375 Z M 167.144531 137.34375 " fill-opacity="1" fill-rule="evenodd"/></g><g clip-path="url(#e6773d01a6)"><path fill="#0f1a40" d="M 167.144531 203.867188 L 15.132812 203.867188 C 9.214844 203.867188 4.410156 199.058594 4.410156 193.144531 L 4.410156 139.488281 C 4.410156 133.570312 9.214844 128.765625 15.132812 128.765625 L 167.144531 128.765625 C 169.519531 128.765625 171.433594 130.679688 171.433594 133.054688 C 171.433594 135.425781 169.519531 137.34375 167.144531 137.34375 L 15.132812 137.34375 C 13.972656 137.34375 12.984375 138.328125 12.984375 139.488281 L 12.984375 193.144531 C 12.984375 194.308594 13.972656 195.289062 15.132812 195.289062 L 167.144531 195.289062 C 169.519531 195.289062 171.433594 197.207031 171.433594 199.582031 C 171.433594 201.949219 169.519531 203.867188 167.144531 203.867188 Z M 167.144531 203.867188 " fill-opacity="1" fill-rule="evenodd"/></g><g clip-path="url(#cfa2366521)"><path fill="#0f1a40" d="M 167.144531 270.394531 L 15.132812 270.394531 C 9.214844 270.394531 4.410156 265.585938 4.410156 259.667969 L 4.410156 206.015625 C 4.410156 200.097656 9.214844 195.289062 15.132812 195.289062 L 167.144531 195.289062 C 169.519531 195.289062 171.433594 197.207031 171.433594 199.582031 C 171.433594 201.949219 169.519531 203.867188 167.144531 203.867188 L 15.132812 203.867188 C 13.972656 203.867188 12.984375 204.855469 12.984375 206.015625 L 12.984375 259.667969 C 12.984375 260.835938 13.972656 261.816406 15.132812 261.816406 L 167.144531 261.816406 C 169.519531 261.816406 171.433594 263.734375 171.433594 266.109375 C 171.433594 268.476562 169.519531 270.394531 167.144531 270.394531 Z M 167.144531 270.394531 " fill-opacity="1" fill-rule="evenodd"/></g><path fill="#0f1a40" d="M 60.988281 120.566406 L 39.113281 120.566406 C 33.683594 120.566406 29.269531 116.160156 29.269531 110.730469 L 29.269531 88.851562 C 29.269531 83.429688 33.683594 79.007812 39.113281 79.007812 L 60.988281 79.007812 C 66.414062 79.007812 70.828125 83.421875 70.828125 88.851562 L 70.828125 110.730469 C 70.828125 116.152344 66.414062 120.566406 60.988281 120.566406 Z M 39.113281 87.59375 C 38.425781 87.59375 37.855469 88.171875 37.855469 88.851562 L 37.855469 110.730469 C 37.855469 111.410156 38.425781 111.988281 39.113281 111.988281 L 60.988281 111.988281 C 61.667969 111.988281 62.242188 111.410156 62.242188 110.730469 L 62.242188 88.851562 C 62.242188 88.171875 61.667969 87.59375 60.988281 87.59375 Z M 39.113281 87.59375 " fill-opacity="1" fill-rule="evenodd"/><path fill="#0f1a40" d="M 180.648438 95.324219 L 90.40625 95.324219 C 88.039062 95.324219 86.117188 93.402344 86.117188 91.035156 C 86.117188 88.664062 88.039062 86.742188 90.40625 86.742188 L 180.648438 86.742188 C 183.015625 86.742188 184.941406 88.664062 184.941406 91.035156 C 184.941406 93.402344 183.015625 95.324219 180.648438 95.324219 Z M 180.648438 95.324219 " fill-opacity="1" fill-rule="evenodd"/><path fill="#0f1a40" d="M 142.1875 112.839844 L 90.40625 112.839844 C 88.039062 112.839844 86.117188 110.914062 86.117188 108.546875 C 86.117188 106.179688 88.039062 104.253906 90.40625 104.253906 L 142.1875 104.253906 C 144.5625 104.253906 146.480469 106.179688 146.480469 108.546875 C 146.480469 110.914062 144.5625 112.839844 142.1875 112.839844 Z M 142.1875 112.839844 " fill-opacity="1" fill-rule="evenodd"/><path fill="#0f1a40" d="M 60.988281 187.097656 L 39.113281 187.097656 C 33.683594 187.097656 29.269531 182.675781 29.269531 177.253906 L 29.269531 155.378906 C 29.269531 149.953125 33.683594 145.535156 39.113281 145.535156 L 60.988281 145.535156 C 66.414062 145.535156 70.828125 149.949219 70.828125 155.378906 L 70.828125 177.253906 C 70.828125 182.675781 66.414062 187.097656 60.988281 187.097656 Z M 39.113281 154.117188 C 38.425781 154.117188 37.855469 154.699219 37.855469 155.378906 L 37.855469 177.253906 C 37.855469 177.933594 38.425781 178.515625 39.113281 178.515625 L 60.988281 178.515625 C 61.667969 178.515625 62.242188 177.933594 62.242188 177.253906 L 62.242188 155.378906 C 62.242188 154.699219 61.667969 154.117188 60.988281 154.117188 Z M 39.113281 154.117188 " fill-opacity="1" fill-rule="evenodd"/><path fill="#0f1a40" d="M 167.144531 161.851562 L 90.40625 161.851562 C 88.039062 161.851562 86.117188 159.925781 86.117188 157.558594 C 86.117188 155.191406 88.039062 153.265625 90.40625 153.265625 L 167.144531 153.265625 C 169.519531 153.265625 171.433594 155.191406 171.433594 157.558594 C 171.433594 159.925781 169.519531 161.851562 167.144531 161.851562 Z M 167.144531 161.851562 " fill-opacity="1" fill-rule="evenodd"/><path fill="#0f1a40" d="M 142.1875 179.363281 L 90.40625 179.363281 C 88.039062 179.363281 86.117188 177.441406 86.117188 175.074219 C 86.117188 172.703125 88.039062 170.78125 90.40625 170.78125 L 142.1875 170.78125 C 144.5625 170.78125 146.480469 172.703125 146.480469 175.074219 C 146.480469 177.441406 144.5625 179.363281 142.1875 179.363281 Z M 142.1875 179.363281 " fill-opacity="1" fill-rule="evenodd"/><path fill="#0f1a40" d="M 60.988281 253.617188 L 39.113281 253.617188 C 33.683594 253.617188 29.269531 249.203125 29.269531 243.78125 L 29.269531 221.902344 C 29.269531 216.480469 33.683594 212.058594 39.113281 212.058594 L 60.988281 212.058594 C 66.414062 212.058594 70.828125 216.480469 70.828125 221.902344 L 70.828125 243.78125 C 70.828125 249.203125 66.414062 253.617188 60.988281 253.617188 Z M 39.113281 220.644531 C 38.425781 220.644531 37.855469 221.222656 37.855469 221.902344 L 37.855469 243.78125 C 37.855469 244.460938 38.425781 245.039062 39.113281 245.039062 L 60.988281 245.039062 C 61.667969 245.039062 62.242188 244.460938 62.242188 243.78125 L 62.242188 221.902344 C 62.242188 221.222656 61.667969 220.644531 60.988281 220.644531 Z M 39.113281 220.644531 " fill-opacity="1" fill-rule="evenodd"/><path fill="#0f1a40" d="M 167.144531 228.378906 L 90.40625 228.378906 C 88.039062 228.378906 86.117188 226.453125 86.117188 224.085938 C 86.117188 221.71875 88.039062 219.792969 90.40625 219.792969 L 167.144531 219.792969 C 169.519531 219.792969 171.433594 221.71875 171.433594 224.085938 C 171.433594 226.453125 169.519531 228.378906 167.144531 228.378906 Z M 167.144531 228.378906 " fill-opacity="1" fill-rule="evenodd"/><path fill="#0f1a40" d="M 142.1875 245.890625 L 90.40625 245.890625 C 88.039062 245.890625 86.117188 243.964844 86.117188 241.597656 C 86.117188 239.230469 88.039062 237.304688 90.40625 237.304688 L 142.1875 237.304688 C 144.5625 237.304688 146.480469 239.230469 146.480469 241.597656 C 146.480469 243.964844 144.5625 245.890625 142.1875 245.890625 Z M 142.1875 245.890625 " fill-opacity="1" fill-rule="evenodd"/></svg>