<svg xmlns="http://www.w3.org/2000/svg" xmlns:xlink="http://www.w3.org/1999/xlink" width="500" zoomAndPan="magnify" viewBox="0 0 375 374.999991" height="500" preserveAspectRatio="xMidYMid meet" version="1.0"><defs><clipPath id="f10aa801f4"><path d="M 11.289062 8.832031 L 363.789062 8.832031 L 363.789062 365.832031 L 11.289062 365.832031 Z M 11.289062 8.832031 " clip-rule="nonzero"/></clipPath></defs><g clip-path="url(#f10aa801f4)"><path fill="#0f1a40" d="M 331.605469 44.789062 L 304.703125 44.789062 L 307.089844 39.417969 C 308.058594 37.238281 307.585938 34.6875 305.898438 33.003906 L 294.824219 21.929688 C 293.136719 20.242188 290.589844 19.769531 288.410156 20.738281 L 281.695312 23.71875 C 278.355469 21.914062 274.851562 20.460938 271.21875 19.378906 L 268.582031 12.523438 C 267.726562 10.296875 265.585938 8.832031 263.203125 8.832031 L 247.542969 8.832031 C 245.160156 8.832031 243.023438 10.300781 242.164062 12.523438 L 239.527344 19.375 C 235.894531 20.460938 232.390625 21.914062 229.054688 23.71875 L 222.339844 20.734375 C 220.160156 19.765625 217.609375 20.242188 215.925781 21.925781 L 204.851562 33 C 203.164062 34.6875 202.691406 37.238281 203.65625 39.414062 L 206.042969 44.789062 L 188.136719 44.789062 L 188.136719 32.964844 C 188.136719 22.722656 179.804688 14.390625 169.5625 14.390625 L 164.4375 14.390625 C 154.195312 14.390625 145.863281 22.722656 145.863281 32.964844 L 145.863281 44.789062 L 43.316406 44.789062 C 25.699219 44.789062 11.363281 59.121094 11.363281 76.742188 L 11.363281 256.910156 C 11.363281 274.527344 25.699219 288.863281 43.316406 288.863281 L 128.164062 288.863281 L 128.164062 318.945312 L 94.066406 318.945312 C 78.574219 318.945312 65.96875 329.535156 65.96875 342.550781 L 65.96875 360.394531 C 65.96875 363.578125 68.546875 366.160156 71.730469 366.160156 L 303.191406 366.160156 C 306.375 366.160156 308.957031 363.578125 308.957031 360.394531 L 308.957031 342.550781 C 308.957031 329.535156 296.351562 318.941406 280.859375 318.941406 L 246.757812 318.941406 L 246.757812 288.859375 L 331.605469 288.859375 C 349.222656 288.859375 363.558594 274.527344 363.558594 256.910156 L 363.558594 76.742188 C 363.558594 59.121094 349.222656 44.789062 331.605469 44.789062 Z M 212.707031 62.265625 C 213.78125 57.75 215.5625 53.453125 218.003906 49.492188 C 219 47.875 219.136719 45.867188 218.363281 44.132812 L 215.796875 38.355469 L 221.277344 32.878906 L 227.054688 35.445312 C 228.792969 36.214844 230.796875 36.082031 232.414062 35.085938 C 236.378906 32.644531 240.675781 30.863281 245.1875 29.789062 C 247.035156 29.347656 248.550781 28.027344 249.230469 26.253906 L 251.5 20.359375 L 259.246094 20.359375 L 261.515625 26.253906 C 262.199219 28.027344 263.710938 29.347656 265.5625 29.789062 C 270.070312 30.863281 274.371094 32.644531 278.332031 35.085938 C 279.949219 36.082031 281.957031 36.214844 283.691406 35.445312 L 289.472656 32.878906 L 294.949219 38.355469 L 292.382812 44.132812 C 291.613281 45.871094 291.746094 47.875 292.742188 49.496094 C 295.183594 53.457031 296.964844 57.753906 298.039062 62.265625 C 298.480469 64.113281 299.800781 65.628906 301.574219 66.3125 L 307.46875 68.578125 L 307.46875 76.324219 L 301.578125 78.59375 C 299.804688 79.273438 298.480469 80.789062 298.039062 82.636719 C 296.964844 87.152344 295.183594 91.449219 292.746094 95.410156 C 291.75 97.03125 291.613281 99.035156 292.386719 100.773438 L 294.949219 106.550781 L 289.472656 112.027344 L 283.695312 109.460938 C 281.957031 108.6875 279.949219 108.824219 278.332031 109.820312 C 274.371094 112.261719 270.074219 114.042969 265.5625 115.117188 C 263.714844 115.554688 262.199219 116.878906 261.515625 118.652344 L 259.25 124.546875 L 251.503906 124.546875 L 249.234375 118.652344 C 248.550781 116.878906 247.039062 115.558594 245.191406 115.117188 C 240.675781 114.042969 236.378906 112.261719 232.414062 109.820312 C 230.796875 108.824219 228.792969 108.691406 227.054688 109.460938 L 221.277344 112.027344 L 215.800781 106.550781 L 218.367188 100.769531 C 219.140625 99.035156 219.003906 97.027344 218.007812 95.410156 C 215.566406 91.449219 213.785156 87.152344 212.710938 82.640625 C 212.273438 80.789062 210.949219 79.277344 209.175781 78.59375 L 203.28125 76.324219 L 203.28125 68.578125 L 209.171875 66.3125 C 210.945312 65.628906 212.269531 64.117188 212.707031 62.265625 Z M 146.636719 166.003906 L 162.007812 192.628906 C 163.039062 194.410156 164.941406 195.511719 167 195.511719 C 169.058594 195.511719 170.960938 194.410156 171.988281 192.628906 L 187.363281 166.003906 C 187.867188 165.125 188.132812 164.132812 188.132812 163.121094 L 188.132812 78.214844 L 191.753906 78.214844 L 191.753906 80.28125 C 191.753906 82.667969 193.21875 84.804688 195.445312 85.660156 L 202.296875 88.300781 C 203.378906 91.929688 204.832031 95.433594 206.640625 98.773438 L 203.65625 105.488281 C 202.691406 107.667969 203.164062 110.214844 204.847656 111.902344 L 215.921875 122.976562 C 217.609375 124.664062 220.160156 125.136719 222.335938 124.167969 L 229.050781 121.1875 C 232.386719 122.992188 235.894531 124.445312 239.527344 125.53125 L 242.164062 132.378906 C 243.019531 134.605469 245.160156 136.074219 247.542969 136.074219 L 263.203125 136.074219 C 265.585938 136.074219 267.726562 134.605469 268.582031 132.378906 L 271.21875 125.527344 C 274.851562 124.445312 278.355469 122.992188 281.691406 121.183594 L 288.410156 124.167969 C 290.585938 125.136719 293.136719 124.664062 294.824219 122.976562 L 305.898438 111.902344 C 307.582031 110.214844 308.058594 107.667969 307.089844 105.488281 L 304.109375 98.777344 C 305.914062 95.4375 307.367188 91.929688 308.449219 88.296875 L 315.300781 85.660156 C 317.527344 84.804688 318.992188 82.667969 318.992188 80.28125 L 318.992188 78.214844 L 330.128906 78.214844 L 330.128906 233.21875 L 44.792969 233.21875 L 44.792969 78.214844 L 145.863281 78.214844 L 145.863281 163.121094 C 145.863281 164.132812 146.128906 165.125 146.636719 166.003906 Z M 161.609375 168.882812 L 172.390625 168.882812 L 167 178.21875 Z M 202.390625 56.316406 C 202.359375 56.414062 202.324219 56.507812 202.296875 56.605469 L 195.445312 59.242188 C 193.21875 60.097656 191.753906 62.238281 191.753906 64.621094 L 191.753906 66.6875 L 188.136719 66.6875 L 188.136719 56.316406 Z M 164.4375 25.917969 L 169.5625 25.917969 C 173.445312 25.917969 176.609375 29.082031 176.609375 32.964844 L 176.609375 157.355469 L 157.390625 157.355469 L 157.390625 72.453125 C 157.390625 72.453125 157.390625 72.449219 157.390625 72.449219 L 157.390625 32.964844 C 157.390625 29.078125 160.550781 25.917969 164.4375 25.917969 Z M 297.429688 342.550781 L 297.429688 354.632812 L 77.492188 354.632812 L 77.492188 342.550781 C 77.492188 336.003906 85.082031 330.46875 94.0625 330.46875 L 280.859375 330.46875 C 289.839844 330.46875 297.429688 336.003906 297.429688 342.550781 Z M 235.230469 318.945312 L 139.691406 318.945312 L 139.691406 288.863281 L 235.230469 288.863281 Z M 352.03125 256.910156 C 352.03125 268.171875 342.867188 277.335938 331.605469 277.335938 L 43.316406 277.335938 C 32.054688 277.335938 22.890625 268.171875 22.890625 256.910156 L 22.890625 76.742188 C 22.890625 65.480469 32.054688 56.316406 43.316406 56.316406 L 145.863281 56.316406 L 145.863281 66.6875 L 42.660156 66.6875 C 37.480469 66.6875 33.265625 70.902344 33.265625 76.082031 L 33.265625 238.984375 C 33.265625 242.167969 35.84375 244.746094 39.027344 244.746094 L 335.894531 244.746094 C 339.074219 244.746094 341.65625 242.167969 341.65625 238.984375 L 341.65625 76.085938 C 341.65625 70.90625 337.441406 66.691406 332.261719 66.691406 L 318.996094 66.691406 L 318.996094 64.625 C 318.996094 62.238281 317.527344 60.101562 315.300781 59.246094 L 308.449219 56.605469 C 308.421875 56.507812 308.382812 56.414062 308.355469 56.316406 L 331.605469 56.316406 C 342.867188 56.316406 352.03125 65.480469 352.03125 76.742188 Z M 255.375 105.527344 C 273.613281 105.527344 288.449219 90.691406 288.449219 72.453125 C 288.449219 54.214844 273.613281 39.378906 255.375 39.378906 C 237.136719 39.378906 222.300781 54.214844 222.300781 72.453125 C 222.300781 90.691406 237.136719 105.527344 255.375 105.527344 Z M 255.375 50.90625 C 267.257812 50.90625 276.921875 60.570312 276.921875 72.453125 C 276.921875 84.332031 267.257812 94 255.375 94 C 243.492188 94 233.824219 84.332031 233.824219 72.453125 C 233.824219 60.570312 243.492188 50.90625 255.375 50.90625 Z M 245.902344 212.921875 L 260.742188 157.53125 C 261.566406 154.457031 264.730469 152.632812 267.800781 153.457031 C 270.875 154.28125 272.703125 157.441406 271.878906 160.515625 L 257.035156 215.90625 C 256.34375 218.480469 254.015625 220.179688 251.472656 220.179688 C 250.976562 220.179688 250.476562 220.113281 249.976562 219.980469 C 246.902344 219.15625 245.078125 215.996094 245.902344 212.921875 Z M 206.992188 186.71875 C 206.992188 185.019531 207.742188 183.40625 209.042969 182.3125 L 233.226562 161.933594 C 235.660156 159.882812 239.296875 160.191406 241.347656 162.625 C 243.398438 165.0625 243.089844 168.695312 240.65625 170.746094 L 221.699219 186.71875 L 240.65625 202.691406 C 243.089844 204.742188 243.398438 208.378906 241.347656 210.8125 C 240.207031 212.164062 238.578125 212.859375 236.9375 212.859375 C 235.625 212.859375 234.308594 212.414062 233.226562 211.503906 L 209.042969 191.125 C 207.742188 190.03125 206.992188 188.417969 206.992188 186.71875 Z M 277.125 202.691406 L 296.078125 186.71875 L 277.125 170.746094 C 274.691406 168.695312 274.378906 165.058594 276.429688 162.625 C 278.480469 160.191406 282.117188 159.882812 284.550781 161.933594 L 308.734375 182.3125 C 310.035156 183.40625 310.785156 185.019531 310.785156 186.71875 C 310.785156 188.417969 310.035156 190.03125 308.734375 191.125 L 284.550781 211.503906 C 283.46875 212.414062 282.152344 212.859375 280.839844 212.859375 C 279.199219 212.859375 277.570312 212.164062 276.429688 210.8125 C 274.378906 208.378906 274.691406 204.742188 277.125 202.691406 Z M 64.355469 207.414062 L 184.34375 207.414062 C 187.527344 207.414062 190.109375 209.996094 190.109375 213.179688 C 190.109375 216.359375 187.527344 218.941406 184.34375 218.941406 L 64.355469 218.941406 C 61.171875 218.941406 58.589844 216.359375 58.589844 213.179688 C 58.589844 209.996094 61.171875 207.414062 64.355469 207.414062 Z M 58.179688 166.695312 C 58.179688 163.511719 60.761719 160.929688 63.945312 160.929688 L 126.300781 160.929688 C 129.480469 160.929688 132.0625 163.511719 132.0625 166.695312 C 132.0625 169.878906 129.480469 172.457031 126.300781 172.457031 L 63.945312 172.457031 C 60.761719 172.457031 58.179688 169.878906 58.179688 166.695312 Z M 58.386719 189.9375 C 58.386719 186.753906 60.964844 184.171875 64.148438 184.171875 L 126.503906 184.171875 C 129.6875 184.171875 132.265625 186.753906 132.265625 189.9375 C 132.265625 193.121094 129.6875 195.699219 126.503906 195.699219 L 64.148438 195.699219 C 60.964844 195.699219 58.386719 193.121094 58.386719 189.9375 Z M 58.589844 96.96875 C 58.589844 93.785156 61.171875 91.207031 64.355469 91.207031 L 126.710938 91.207031 C 129.890625 91.207031 132.472656 93.785156 132.472656 96.96875 C 132.472656 100.152344 129.890625 102.734375 126.710938 102.734375 L 64.355469 102.734375 C 61.171875 102.734375 58.589844 100.152344 58.589844 96.96875 Z M 58.386719 120.210938 C 58.386719 117.027344 60.964844 114.449219 64.148438 114.449219 L 126.503906 114.449219 C 129.6875 114.449219 132.265625 117.027344 132.265625 120.210938 C 132.265625 123.394531 129.6875 125.976562 126.503906 125.976562 L 64.148438 125.976562 C 60.964844 125.976562 58.386719 123.394531 58.386719 120.210938 Z M 58.179688 143.453125 C 58.179688 140.269531 60.761719 137.691406 63.945312 137.691406 L 126.300781 137.691406 C 129.480469 137.691406 132.0625 140.269531 132.0625 143.453125 C 132.0625 146.636719 129.480469 149.214844 126.300781 149.214844 L 63.945312 149.214844 C 60.761719 149.214844 58.179688 146.636719 58.179688 143.453125 Z M 58.179688 143.453125 " fill-opacity="1" fill-rule="nonzero"/></g></svg>