<svg xmlns="http://www.w3.org/2000/svg" xmlns:xlink="http://www.w3.org/1999/xlink" width="500" zoomAndPan="magnify" viewBox="0 0 375 374.999991" height="500" preserveAspectRatio="xMidYMid meet" version="1.0"><defs><clipPath id="f8831d2cd3"><path d="M 3.621094 30.285156 L 371.121094 30.285156 L 371.121094 344.535156 L 3.621094 344.535156 Z M 3.621094 30.285156 " clip-rule="nonzero"/></clipPath></defs><g clip-path="url(#f8831d2cd3)"><path fill="#0f1a40" d="M 23.582031 48.617188 L 354.222656 48.617188 L 354.222656 246.074219 L 20.777344 246.074219 L 20.777344 48.617188 Z M 89.046875 115.953125 C 87.972656 114.835938 88.007812 113.066406 89.121094 111.992188 C 90.238281 110.921875 92.007812 110.957031 93.082031 112.070312 C 98.972656 118.195312 102.996094 126.8125 104.929688 135.863281 C 106.921875 145.195312 106.707031 155.066406 104.039062 163.179688 C 103.558594 164.652344 101.976562 165.457031 100.507812 164.976562 C 99.035156 164.5 98.230469 162.917969 98.707031 161.449219 C 101.070312 154.265625 101.242188 145.4375 99.445312 137.027344 C 97.71875 128.933594 94.183594 121.289062 89.046875 115.953125 Z M 89.847656 175.941406 C 90.925781 174.835938 92.695312 174.808594 93.804688 175.886719 C 94.914062 176.964844 94.9375 178.738281 93.859375 179.847656 C 93.027344 180.699219 92.136719 181.542969 91.191406 182.375 C 90.28125 183.171875 89.316406 183.953125 88.296875 184.71875 C 87.0625 185.644531 85.308594 185.394531 84.382812 184.160156 C 83.457031 182.921875 83.707031 181.171875 84.941406 180.242188 C 85.824219 179.578125 86.679688 178.886719 87.503906 178.160156 C 88.316406 177.453125 89.097656 176.710938 89.847656 175.941406 Z M 248.183594 240.460938 L 248.183594 78.3125 C 248.183594 76.761719 249.441406 75.503906 250.988281 75.503906 L 324.265625 75.503906 C 325.8125 75.503906 327.070312 76.761719 327.070312 78.3125 L 327.070312 240.460938 L 348.609375 240.460938 L 348.609375 54.234375 L 26.390625 54.234375 L 26.390625 240.460938 L 56.640625 240.460938 L 63.71875 196.578125 C 62.683594 196.066406 61.679688 195.511719 60.703125 194.917969 C 51.242188 189.179688 45.199219 180.054688 42.429688 170.035156 C 39.675781 160.085938 40.152344 149.222656 43.714844 139.933594 C 44.589844 137.652344 45.671875 135.433594 46.957031 133.316406 C 49.109375 129.773438 51.386719 126.273438 53.699219 122.71875 C 63.65625 107.425781 74.335938 91.019531 69.882812 80.066406 C 69.300781 78.628906 69.992188 76.996094 71.425781 76.414062 C 72.277344 76.070312 73.199219 76.171875 73.925781 76.609375 C 91.71875 85.414062 105.488281 100.953125 113.3125 118.214844 C 117.589844 127.65625 120.101562 137.640625 120.53125 147.351562 C 120.964844 157.144531 119.273438 166.664062 115.140625 175.085938 C 110.738281 184.050781 103.605469 191.726562 93.367188 197.117188 L 97.960938 240.460938 L 147.089844 240.460938 L 147.089844 229.621094 C 147.089844 227.933594 147.777344 226.402344 148.882812 225.296875 C 149.992188 224.1875 151.523438 223.5 153.210938 223.5 L 161.019531 223.5 L 161.019531 201.089844 C 161.019531 198.976562 161.882812 197.058594 163.269531 195.671875 C 164.308594 194.632812 165.640625 193.890625 167.132812 193.582031 C 167.667969 187.574219 167.476562 170.972656 150.898438 160.785156 L 150.902344 160.78125 C 150.054688 160.261719 149.671875 159.199219 150.042969 158.238281 L 181.425781 77.714844 C 181.683594 76.84375 182.492188 76.207031 183.449219 76.207031 C 184.402344 76.207031 185.210938 76.84375 185.46875 77.714844 L 216.792969 158.078125 C 217.257812 159.039062 216.925781 160.214844 216 160.785156 C 199.417969 170.972656 199.226562 187.578125 199.765625 193.582031 C 201.246094 193.894531 202.578125 194.636719 203.617188 195.675781 L 203.625 195.671875 C 205.011719 197.058594 205.875 198.976562 205.875 201.089844 L 205.875 223.5 L 213.6875 223.5 C 215.359375 223.5 216.886719 224.191406 218.003906 225.304688 L 218.011719 225.296875 C 219.117188 226.402344 219.804688 227.933594 219.804688 229.621094 L 219.804688 240.460938 Z M 321.453125 240.460938 L 321.453125 81.117188 L 253.796875 81.117188 L 253.796875 240.460938 Z M 65.144531 240.460938 L 89.515625 240.460938 L 85.25 200.195312 L 71.707031 199.773438 Z M 155.511719 240.460938 L 211.382812 240.460938 L 211.382812 231.921875 L 155.511719 231.921875 Z M 166.636719 223.5 L 200.257812 223.5 L 200.257812 201.089844 C 200.257812 200.527344 200.027344 200.015625 199.65625 199.640625 L 199.660156 199.636719 L 199.65625 199.628906 C 199.289062 199.261719 198.777344 199.035156 198.207031 199.035156 L 168.6875 199.035156 C 168.125 199.035156 167.613281 199.265625 167.242188 199.640625 C 166.867188 200.015625 166.636719 200.527344 166.636719 201.089844 Z M 195.546875 193.421875 C 195.035156 186.382812 195.726562 169.28125 212.316406 158.15625 L 185.554688 89.492188 L 185.554688 135.90625 C 187.3125 136.3125 188.886719 137.207031 190.125 138.445312 C 191.832031 140.15625 192.890625 142.511719 192.890625 145.113281 C 192.890625 147.722656 191.832031 150.082031 190.125 151.789062 C 188.414062 153.5 186.054688 154.558594 183.449219 154.558594 C 180.839844 154.558594 178.480469 153.5 176.769531 151.789062 C 175.0625 150.082031 174.003906 147.71875 174.003906 145.113281 C 174.003906 142.507812 175.0625 140.144531 176.769531 138.4375 C 178.003906 137.199219 179.582031 136.304688 181.34375 135.90625 L 181.34375 89.492188 L 154.578125 158.15625 C 171.167969 169.28125 171.859375 186.382812 171.347656 193.421875 Z M 186.15625 142.394531 C 185.46875 141.710938 184.511719 141.285156 183.449219 141.285156 C 182.390625 141.285156 181.433594 141.714844 180.738281 142.40625 C 180.046875 143.097656 179.621094 144.054688 179.621094 145.113281 C 179.621094 146.171875 180.046875 147.128906 180.738281 147.820312 C 181.433594 148.511719 182.390625 148.941406 183.449219 148.941406 C 184.507812 148.941406 185.464844 148.511719 186.15625 147.820312 C 186.847656 147.128906 187.273438 146.171875 187.273438 145.113281 C 187.273438 144.046875 186.847656 143.085938 186.15625 142.394531 Z M 121.574219 320.253906 L 136.425781 320.253906 C 139.945312 316.492188 142.640625 312.171875 144.613281 307.636719 C 146.710938 302.804688 147.996094 297.730469 148.59375 292.824219 L 24.28125 292.824219 C 18.59375 292.824219 13.429688 290.503906 9.6875 286.761719 C 5.945312 283.019531 3.621094 277.851562 3.621094 272.167969 L 3.621094 51.101562 C 3.621094 45.414062 5.945312 40.25 9.6875 36.507812 C 13.429688 32.765625 18.59375 30.441406 24.28125 30.441406 L 350.71875 30.441406 C 356.40625 30.441406 361.574219 32.765625 365.3125 36.507812 C 369.054688 40.25 371.378906 45.414062 371.378906 51.101562 L 371.378906 272.167969 C 371.378906 277.851562 369.054688 283.019531 365.3125 286.761719 C 361.570312 290.503906 356.40625 292.824219 350.71875 292.824219 L 226.40625 292.824219 C 227 297.730469 228.285156 302.804688 230.386719 307.636719 C 232.359375 312.171875 235.054688 316.492188 238.574219 320.253906 L 253.425781 320.253906 C 256.773438 320.253906 259.8125 321.621094 262.007812 323.820312 C 264.207031 326.019531 265.574219 329.058594 265.574219 332.402344 L 265.574219 340.339844 C 265.574219 342.664062 263.6875 344.550781 261.363281 344.550781 L 113.636719 344.550781 C 111.3125 344.550781 109.425781 342.664062 109.425781 340.339844 L 109.425781 332.402344 C 109.425781 329.058594 110.792969 326.019531 112.992188 323.820312 C 115.1875 321.621094 118.226562 320.253906 121.574219 320.253906 Z M 143.730469 320.253906 L 231.269531 320.253906 C 228.820312 317.003906 226.832031 313.496094 225.253906 309.875 C 222.835938 304.304688 221.394531 298.453125 220.773438 292.824219 L 154.226562 292.824219 C 153.605469 298.453125 152.164062 304.304688 149.746094 309.875 C 148.167969 313.496094 146.179688 317.003906 143.730469 320.253906 Z M 253.425781 328.675781 L 121.574219 328.675781 C 120.550781 328.675781 119.621094 329.097656 118.945312 329.773438 C 118.265625 330.453125 117.847656 331.382812 117.847656 332.402344 L 117.847656 336.128906 L 257.152344 336.128906 L 257.152344 332.402344 C 257.152344 331.382812 256.734375 330.453125 256.054688 329.773438 C 255.378906 329.097656 254.449219 328.675781 253.425781 328.675781 Z M 187.5 257.089844 C 190.535156 257.089844 193.28125 258.320312 195.269531 260.308594 C 197.257812 262.296875 198.488281 265.042969 198.488281 268.074219 C 198.488281 271.109375 197.257812 273.859375 195.269531 275.84375 L 195.144531 275.964844 C 193.164062 277.882812 190.46875 279.0625 187.5 279.0625 C 184.472656 279.0625 181.726562 277.835938 179.738281 275.84375 L 179.730469 275.839844 C 177.742188 273.847656 176.511719 271.105469 176.511719 268.074219 C 176.511719 265.046875 177.742188 262.304688 179.730469 260.316406 L 179.730469 260.308594 C 181.71875 258.320312 184.464844 257.089844 187.5 257.089844 Z M 192.292969 263.285156 C 191.066406 262.058594 189.371094 261.300781 187.5 261.300781 C 185.628906 261.300781 183.933594 262.058594 182.707031 263.285156 L 182.703125 263.28125 C 181.480469 264.503906 180.722656 266.203125 180.722656 268.074219 C 180.722656 269.953125 181.480469 271.648438 182.703125 272.871094 C 183.929688 274.097656 185.625 274.851562 187.5 274.851562 C 189.328125 274.851562 190.984375 274.132812 192.203125 272.964844 L 192.292969 272.871094 C 193.515625 271.644531 194.277344 269.949219 194.277344 268.074219 C 194.277344 266.203125 193.515625 264.511719 192.292969 263.285156 Z M 350.71875 38.863281 L 24.28125 38.863281 C 20.917969 38.863281 17.859375 40.242188 15.640625 42.460938 C 13.421875 44.679688 12.042969 47.738281 12.042969 51.101562 L 12.042969 272.167969 C 12.042969 275.527344 13.421875 278.585938 15.640625 280.804688 C 17.859375 283.023438 20.917969 284.402344 24.28125 284.402344 L 350.71875 284.402344 C 354.082031 284.402344 357.140625 283.023438 359.359375 280.804688 C 361.578125 278.585938 362.957031 275.527344 362.957031 272.167969 L 362.957031 51.101562 C 362.957031 47.738281 361.578125 44.679688 359.359375 42.460938 C 357.140625 40.242188 354.082031 38.863281 350.71875 38.863281 Z M 66.390625 191.652344 C 67 191.375 67.679688 191.234375 68.386719 191.273438 L 89.15625 191.921875 C 89.675781 191.9375 90.167969 192.042969 90.621094 192.226562 C 99.828125 187.414062 106.210938 180.585938 110.117188 172.628906 C 113.820312 165.085938 115.332031 156.488281 114.9375 147.59375 C 114.542969 138.617188 112.199219 129.335938 108.203125 120.519531 C 101.636719 106.027344 90.628906 92.855469 76.484375 84.371094 C 77.183594 96.898438 67.507812 111.765625 58.394531 125.765625 C 56.035156 129.386719 53.71875 132.949219 51.738281 136.210938 C 50.664062 137.980469 49.738281 139.898438 48.957031 141.925781 C 45.808594 150.140625 45.386719 159.742188 47.820312 168.542969 C 50.238281 177.273438 55.457031 185.199219 63.597656 190.136719 C 64.484375 190.675781 65.414062 191.183594 66.390625 191.652344 Z M 286.191406 98.019531 C 285.027344 98.019531 284.085938 97.074219 284.085938 95.914062 C 284.085938 94.75 285.027344 93.808594 286.191406 93.808594 L 309.335938 93.808594 C 310.5 93.808594 311.441406 94.75 311.441406 95.914062 C 311.441406 97.074219 310.5 98.019531 309.335938 98.019531 Z M 286.191406 150.367188 C 285.027344 150.367188 284.085938 149.425781 284.085938 148.261719 C 284.085938 147.101562 285.027344 146.15625 286.191406 146.15625 L 309.335938 146.15625 C 310.5 146.15625 311.441406 147.101562 311.441406 148.261719 C 311.441406 149.425781 310.5 150.367188 309.335938 150.367188 Z M 286.191406 202.71875 C 285.027344 202.71875 284.085938 201.773438 284.085938 200.613281 C 284.085938 199.449219 285.027344 198.503906 286.191406 198.503906 L 309.335938 198.503906 C 310.5 198.503906 311.441406 199.449219 311.441406 200.613281 C 311.441406 201.773438 310.5 202.71875 309.335938 202.71875 Z M 296.558594 124.191406 C 295.394531 124.191406 294.453125 123.25 294.453125 122.085938 C 294.453125 120.921875 295.394531 119.980469 296.558594 119.980469 L 309.335938 119.980469 C 310.5 119.980469 311.441406 120.921875 311.441406 122.085938 C 311.441406 123.25 310.5 124.191406 309.335938 124.191406 Z M 296.558594 176.542969 C 295.394531 176.542969 294.453125 175.601562 294.453125 174.4375 C 294.453125 173.277344 295.394531 172.332031 296.558594 172.332031 L 309.335938 172.332031 C 310.5 172.332031 311.441406 173.277344 311.441406 174.4375 C 311.441406 175.601562 310.5 176.542969 309.335938 176.542969 Z M 296.558594 228.894531 C 295.394531 228.894531 294.453125 227.949219 294.453125 226.789062 C 294.453125 225.625 295.394531 224.679688 296.558594 224.679688 L 309.335938 224.679688 C 310.5 224.679688 311.441406 225.625 311.441406 226.789062 C 311.441406 227.949219 310.5 228.894531 309.335938 228.894531 Z M 296.558594 228.894531 " fill-opacity="1" fill-rule="nonzero"/></g></svg>