<svg xmlns="http://www.w3.org/2000/svg" xmlns:xlink="http://www.w3.org/1999/xlink" width="500" zoomAndPan="magnify" viewBox="0 0 375 374.999991" height="500" preserveAspectRatio="xMidYMid meet" version="1.0"><defs><clipPath id="0a8435707c"><path d="M 0 112 L 63 112 L 63 307.269531 L 0 307.269531 Z M 0 112 " clip-rule="nonzero"/></clipPath><clipPath id="4ccf569508"><path d="M 314.261719 112.589844 L 375 112.589844 L 375 307.257812 L 314.261719 307.257812 Z M 314.261719 112.589844 " clip-rule="nonzero"/></clipPath><clipPath id="ffc7810af2"><path d="M 158 68.019531 L 218 68.019531 L 218 133 L 158 133 Z M 158 68.019531 " clip-rule="nonzero"/></clipPath></defs><path fill="#4a87ce" d="M 128.367188 177.117188 C 123.75 177.117188 119.445312 177.992188 115.457031 179.738281 C 111.460938 181.484375 108 183.84375 105.070312 186.808594 C 102.136719 189.773438 99.8125 193.253906 98.101562 197.246094 C 96.382812 201.242188 95.527344 205.488281 95.527344 209.980469 C 95.527344 214.472656 96.382812 218.71875 98.101562 222.714844 C 99.8125 226.707031 102.136719 230.1875 105.070312 233.152344 C 108 236.117188 111.460938 238.476562 115.457031 240.222656 C 119.445312 241.96875 123.75 242.84375 128.367188 242.84375 C 132.921875 242.84375 137.191406 241.96875 141.183594 240.222656 C 145.175781 238.476562 148.652344 236.101562 151.617188 233.105469 C 154.578125 230.109375 156.917969 226.632812 158.636719 222.667969 C 160.347656 218.703125 161.207031 214.472656 161.207031 209.980469 C 161.207031 205.488281 160.347656 201.257812 158.636719 197.292969 C 156.917969 193.332031 154.578125 189.851562 151.617188 186.855469 C 148.652344 183.859375 145.175781 181.484375 141.183594 179.738281 C 137.191406 177.992188 132.921875 177.117188 128.367188 177.117188 Z M 180.761719 209.980469 C 180.761719 224.585938 175.644531 236.945312 165.417969 247.054688 C 155.0625 257.292969 142.710938 262.410156 128.367188 262.410156 C 113.894531 262.410156 101.542969 257.292969 91.316406 247.054688 C 81.085938 236.820312 75.972656 224.460938 75.972656 209.980469 C 75.972656 195.5 81.085938 183.140625 91.316406 172.902344 C 101.542969 162.667969 113.894531 157.546875 128.367188 157.546875 C 142.710938 157.546875 155.0625 162.667969 165.417969 172.902344 C 170.53125 178.023438 174.351562 183.671875 176.878906 189.851562 C 179.40625 196.03125 180.699219 202.738281 180.761719 209.980469 " fill-opacity="1" fill-rule="nonzero"/><path fill="#4a87ce" d="M 248.125 177.117188 C 243.511719 177.117188 239.207031 177.992188 235.214844 179.738281 C 231.222656 181.484375 227.761719 183.84375 224.828125 186.808594 C 221.894531 189.773438 219.574219 193.253906 217.859375 197.246094 C 216.140625 201.242188 215.285156 205.488281 215.285156 209.980469 C 215.285156 214.472656 216.140625 218.71875 217.859375 222.714844 C 219.574219 226.707031 221.894531 230.1875 224.828125 233.152344 C 227.761719 236.117188 231.222656 238.476562 235.214844 240.222656 C 239.207031 241.96875 243.511719 242.84375 248.125 242.84375 C 252.675781 242.84375 256.949219 241.96875 260.945312 240.222656 C 264.933594 238.476562 268.414062 236.101562 271.378906 233.105469 C 274.339844 230.109375 276.679688 226.632812 278.390625 222.667969 C 280.105469 218.703125 280.96875 214.472656 280.96875 209.980469 C 280.96875 205.488281 280.105469 201.257812 278.390625 197.292969 C 276.679688 193.332031 274.339844 189.851562 271.378906 186.855469 C 268.414062 183.859375 264.933594 181.484375 260.945312 179.738281 C 256.949219 177.992188 252.675781 177.117188 248.125 177.117188 Z M 300.519531 209.980469 C 300.519531 224.585938 295.40625 236.945312 285.175781 247.054688 C 274.824219 257.292969 262.472656 262.410156 248.125 262.410156 C 233.652344 262.410156 221.304688 257.292969 211.078125 247.054688 C 200.847656 236.820312 195.730469 224.460938 195.730469 209.980469 C 195.730469 195.5 200.847656 183.140625 211.078125 172.902344 C 221.304688 162.667969 233.652344 157.546875 248.125 157.546875 C 262.472656 157.546875 274.824219 162.667969 285.175781 172.902344 C 290.289062 178.023438 294.109375 183.671875 296.636719 189.851562 C 299.164062 196.03125 300.457031 202.738281 300.519531 209.980469 " fill-opacity="1" fill-rule="nonzero"/><g clip-path="url(#0a8435707c)"><path fill="#211d1d" d="M 52.394531 112.703125 C 55.199219 112.703125 57.523438 113.652344 59.363281 115.558594 C 61.203125 117.460938 62.125 119.785156 62.125 122.53125 C 62.125 125.339844 61.203125 127.667969 59.363281 129.507812 C 57.523438 131.347656 55.199219 132.269531 52.394531 132.269531 C 44.660156 132.269531 40.792969 136.140625 40.792969 143.878906 L 40.792969 188.632812 C 40.792969 197.621094 38.734375 204.738281 34.617188 209.980469 C 38.734375 215.222656 40.792969 222.339844 40.792969 231.328125 L 40.792969 276.082031 C 40.792969 283.820312 44.660156 287.691406 52.394531 287.691406 C 55.199219 287.691406 57.523438 288.609375 59.363281 290.453125 C 61.203125 292.292969 62.125 294.617188 62.125 297.429688 C 62.125 300.238281 61.203125 302.582031 59.363281 304.453125 C 57.523438 306.324219 55.199219 307.257812 52.394531 307.257812 C 31.625 307.257812 21.238281 296.867188 21.238281 276.082031 L 21.238281 231.328125 C 21.238281 223.589844 17.402344 219.71875 9.730469 219.71875 C 6.925781 219.71875 4.597656 218.796875 2.757812 216.957031 C 0.917969 215.117188 0 212.789062 0 209.980469 C 0 207.171875 0.917969 204.847656 2.757812 203.003906 C 4.597656 201.164062 6.925781 200.242188 9.730469 200.242188 C 17.402344 200.242188 21.238281 196.371094 21.238281 188.632812 L 21.238281 143.878906 C 21.238281 123.09375 31.625 112.703125 52.394531 112.703125 " fill-opacity="1" fill-rule="nonzero"/></g><g clip-path="url(#4ccf569508)"><path fill="#211d1d" d="M 355.253906 143.878906 L 355.253906 188.632812 C 355.253906 196.371094 359.089844 200.242188 366.761719 200.242188 C 369.570312 200.242188 371.894531 201.164062 373.730469 203.003906 C 375.574219 204.847656 376.492188 207.171875 376.492188 209.980469 C 376.492188 212.789062 375.574219 215.117188 373.730469 216.957031 C 371.894531 218.796875 369.570312 219.71875 366.761719 219.71875 C 359.089844 219.71875 355.253906 223.589844 355.253906 231.328125 L 355.253906 276.082031 C 355.253906 296.867188 344.871094 307.257812 324.097656 307.257812 C 321.289062 307.257812 318.96875 306.324219 317.125 304.453125 C 315.289062 302.582031 314.371094 300.238281 314.371094 297.429688 C 314.371094 294.617188 315.289062 292.292969 317.125 290.453125 C 318.96875 288.609375 321.289062 287.691406 324.097656 287.691406 C 331.835938 287.691406 335.703125 283.820312 335.703125 276.082031 L 335.703125 231.328125 C 335.703125 222.339844 337.757812 215.222656 341.875 209.980469 C 337.757812 204.738281 335.703125 197.621094 335.703125 188.632812 L 335.703125 143.878906 C 335.703125 136.140625 331.835938 132.269531 324.097656 132.269531 C 321.289062 132.269531 318.96875 131.347656 317.125 129.507812 C 315.289062 127.667969 314.371094 125.339844 314.371094 122.53125 C 314.371094 119.785156 315.289062 117.460938 317.125 115.558594 C 318.96875 113.652344 321.289062 112.703125 324.097656 112.703125 C 344.871094 112.703125 355.253906 123.09375 355.253906 143.878906 " fill-opacity="1" fill-rule="nonzero"/></g><g clip-path="url(#ffc7810af2)"><path fill="#211d1d" d="M 217.53125 120.464844 C 217.53125 122.089844 217.21875 123.601562 216.59375 125.003906 C 215.972656 126.410156 215.144531 127.644531 214.117188 128.703125 C 213.089844 129.765625 211.851562 130.589844 210.421875 131.183594 C 208.984375 131.78125 207.488281 132.074219 205.929688 132.074219 C 203.058594 132.074219 200.597656 131.074219 198.539062 129.078125 C 196.480469 127.082031 194.796875 124.628906 193.484375 121.726562 C 192.175781 118.824219 191.222656 115.828125 190.632812 112.738281 C 190.039062 109.652344 189.742188 106.761719 189.742188 104.078125 C 189.742188 93.03125 194.453125 81.859375 203.871094 70.558594 C 205.554688 68.875 207.457031 68.03125 209.578125 68.03125 C 211.757812 68.03125 213.632812 68.8125 215.191406 70.375 C 216.75 71.933594 217.53125 73.808594 217.53125 75.992188 C 217.53125 77.054688 217.3125 78.144531 216.878906 79.265625 C 214.066406 86.136719 212.667969 92.65625 212.667969 98.835938 C 212.667969 104.703125 213.941406 110.382812 216.503906 115.878906 C 217.1875 117.4375 217.53125 118.964844 217.53125 120.464844 Z M 186.75 120.464844 C 186.75 122.089844 186.4375 123.601562 185.816406 125.003906 C 185.1875 126.410156 184.363281 127.644531 183.335938 128.703125 C 182.304688 129.765625 181.074219 130.589844 179.640625 131.183594 C 178.203125 131.78125 176.707031 132.074219 175.148438 132.074219 C 172.277344 132.074219 169.816406 131.074219 167.757812 129.078125 C 165.699219 127.082031 164.015625 124.628906 162.703125 121.726562 C 161.394531 118.824219 160.441406 115.828125 159.851562 112.738281 C 159.257812 109.652344 158.960938 106.761719 158.960938 104.078125 C 158.960938 93.03125 163.667969 81.859375 173.089844 70.558594 C 174.773438 68.875 176.675781 68.03125 178.796875 68.03125 C 180.980469 68.03125 182.851562 68.8125 184.410156 70.375 C 185.96875 71.933594 186.75 73.808594 186.75 75.992188 C 186.75 77.054688 186.53125 78.144531 186.09375 79.265625 C 183.289062 86.136719 181.882812 92.65625 181.882812 98.835938 C 181.882812 104.703125 183.164062 110.382812 185.71875 115.878906 C 186.40625 117.4375 186.75 118.964844 186.75 120.464844 " fill-opacity="1" fill-rule="nonzero"/></g></svg>